<mxfile host="app.diagrams.net" modified="2021-02-04T11:57:57.121Z" agent="5.0 (Windows NT 10.0; Win64; x64) AppleWebKit/537.36 (KHTML, like Gecko) Chrome/88.0.4324.146 Safari/537.36" etag="CsKO8yRasjyk-ClvWuQs" version="14.2.9" type="github">
  <diagram id="BSTLE7_yzejE6WdxNYc8" name="Page-1">
    <mxGraphModel dx="938" dy="536" grid="1" gridSize="10" guides="1" tooltips="1" connect="1" arrows="1" fold="1" page="1" pageScale="1" pageWidth="850" pageHeight="1100" math="0" shadow="0">
      <root>
        <mxCell id="0" />
        <mxCell id="1" parent="0" />
        <mxCell id="Sye2rz8z6Uivf4PvG4rr-3" value="" style="rounded=0;whiteSpace=wrap;html=1;" parent="1" vertex="1">
          <mxGeometry x="110" y="150" width="170" height="90" as="geometry" />
        </mxCell>
        <mxCell id="Sye2rz8z6Uivf4PvG4rr-17" value="&lt;b&gt;&lt;font style=&quot;font-size: 15px&quot;&gt;Network&lt;/font&gt;&lt;/b&gt;" style="ellipse;shape=cloud;whiteSpace=wrap;html=1;" parent="1" vertex="1">
          <mxGeometry x="122.5" y="350" width="450" height="100" as="geometry" />
        </mxCell>
        <mxCell id="Sye2rz8z6Uivf4PvG4rr-18" value="" style="curved=1;endArrow=classic;html=1;startArrow=classic;startFill=1;entryX=0.25;entryY=1;entryDx=0;entryDy=0;exitX=0.25;exitY=0.25;exitDx=0;exitDy=0;exitPerimeter=0;fillColor=#60a917;strokeColor=#2D7600;" parent="1" source="Sye2rz8z6Uivf4PvG4rr-17" target="Sye2rz8z6Uivf4PvG4rr-4" edge="1">
          <mxGeometry width="50" height="50" relative="1" as="geometry">
            <mxPoint x="330" y="350" as="sourcePoint" />
            <mxPoint x="380" y="300" as="targetPoint" />
            <Array as="points">
              <mxPoint x="230" y="350" />
              <mxPoint x="100" y="320" />
            </Array>
          </mxGeometry>
        </mxCell>
        <mxCell id="Sye2rz8z6Uivf4PvG4rr-20" value="" style="curved=1;endArrow=classic;html=1;startArrow=classic;startFill=1;entryX=0.141;entryY=1;entryDx=0;entryDy=0;exitX=0.391;exitY=0.109;exitDx=0;exitDy=0;exitPerimeter=0;fillColor=#60a917;strokeColor=#2D7600;entryPerimeter=0;" parent="1" source="Sye2rz8z6Uivf4PvG4rr-17" target="UTH4l14dTVkqmEDSazQt-22" edge="1">
          <mxGeometry width="50" height="50" relative="1" as="geometry">
            <mxPoint x="242.5" y="425" as="sourcePoint" />
            <mxPoint x="360" y="280" as="targetPoint" />
            <Array as="points">
              <mxPoint x="203" y="290" />
              <mxPoint x="250" y="260" />
            </Array>
          </mxGeometry>
        </mxCell>
        <mxCell id="Sye2rz8z6Uivf4PvG4rr-21" value="" style="curved=1;endArrow=classic;html=1;startArrow=classic;startFill=1;entryX=0;entryY=1;entryDx=0;entryDy=0;exitX=0.4;exitY=0.1;exitDx=0;exitDy=0;exitPerimeter=0;fillColor=#60a917;strokeColor=#2D7600;" parent="1" source="Sye2rz8z6Uivf4PvG4rr-17" target="UTH4l14dTVkqmEDSazQt-34" edge="1">
          <mxGeometry width="50" height="50" relative="1" as="geometry">
            <mxPoint x="401.25" y="410" as="sourcePoint" />
            <mxPoint x="520" y="274" as="targetPoint" />
            <Array as="points">
              <mxPoint x="230" y="300" />
            </Array>
          </mxGeometry>
        </mxCell>
        <mxCell id="UTH4l14dTVkqmEDSazQt-14" value="" style="group" vertex="1" connectable="0" parent="1">
          <mxGeometry x="110" y="160" width="55" height="40" as="geometry" />
        </mxCell>
        <mxCell id="Sye2rz8z6Uivf4PvG4rr-4" value="&lt;div style=&quot;text-align: justify&quot;&gt;&lt;br&gt;&lt;/div&gt;" style="rounded=0;whiteSpace=wrap;html=1;fillColor=#f0a30a;fontColor=#ffffff;strokeColor=none;align=center;" parent="UTH4l14dTVkqmEDSazQt-14" vertex="1">
          <mxGeometry x="2.5" y="10" width="50" height="30" as="geometry" />
        </mxCell>
        <mxCell id="UTH4l14dTVkqmEDSazQt-13" value="&lt;font style=&quot;font-size: 10px&quot;&gt;&lt;b&gt;Service-A&lt;/b&gt;&lt;/font&gt;" style="text;html=1;strokeColor=none;fillColor=none;align=center;verticalAlign=middle;whiteSpace=wrap;rounded=0;" vertex="1" parent="UTH4l14dTVkqmEDSazQt-14">
          <mxGeometry width="55" height="10" as="geometry" />
        </mxCell>
        <mxCell id="UTH4l14dTVkqmEDSazQt-4" value="" style="group" vertex="1" connectable="0" parent="1">
          <mxGeometry x="122.5" y="186" width="40" height="14" as="geometry" />
        </mxCell>
        <mxCell id="UTH4l14dTVkqmEDSazQt-1" value="" style="rounded=0;whiteSpace=wrap;html=1;fillColor=#6d8764;fontColor=#ffffff;strokeColor=none;" vertex="1" parent="UTH4l14dTVkqmEDSazQt-4">
          <mxGeometry width="40" height="14" as="geometry" />
        </mxCell>
        <mxCell id="UTH4l14dTVkqmEDSazQt-3" value="&lt;font style=&quot;font-size: 8px&quot;&gt;falken&lt;/font&gt;" style="rounded=0;whiteSpace=wrap;html=1;fillColor=#008a00;fontColor=#ffffff;strokeColor=none;" vertex="1" parent="UTH4l14dTVkqmEDSazQt-4">
          <mxGeometry x="10" y="4" width="30" height="10" as="geometry" />
        </mxCell>
        <mxCell id="UTH4l14dTVkqmEDSazQt-6" value="" style="group" vertex="1" connectable="0" parent="UTH4l14dTVkqmEDSazQt-4">
          <mxGeometry width="40" height="14" as="geometry" />
        </mxCell>
        <mxCell id="UTH4l14dTVkqmEDSazQt-7" value="" style="rounded=0;whiteSpace=wrap;html=1;fillColor=#6d8764;fontColor=#ffffff;strokeColor=none;" vertex="1" parent="UTH4l14dTVkqmEDSazQt-6">
          <mxGeometry width="40" height="14" as="geometry" />
        </mxCell>
        <mxCell id="UTH4l14dTVkqmEDSazQt-8" value="&lt;font style=&quot;font-size: 8px&quot;&gt;falken&lt;/font&gt;" style="rounded=0;whiteSpace=wrap;html=1;fillColor=#008a00;fontColor=#ffffff;strokeColor=none;" vertex="1" parent="UTH4l14dTVkqmEDSazQt-6">
          <mxGeometry x="10" y="4" width="30" height="10" as="geometry" />
        </mxCell>
        <mxCell id="UTH4l14dTVkqmEDSazQt-15" value="" style="group" vertex="1" connectable="0" parent="1">
          <mxGeometry x="170" y="160" width="55" height="40" as="geometry" />
        </mxCell>
        <mxCell id="UTH4l14dTVkqmEDSazQt-16" value="&lt;div style=&quot;text-align: justify&quot;&gt;&lt;br&gt;&lt;/div&gt;" style="rounded=0;whiteSpace=wrap;html=1;fillColor=#f0a30a;fontColor=#ffffff;strokeColor=none;align=center;" vertex="1" parent="UTH4l14dTVkqmEDSazQt-15">
          <mxGeometry x="2.5" y="10" width="50" height="30" as="geometry" />
        </mxCell>
        <mxCell id="UTH4l14dTVkqmEDSazQt-17" value="&lt;font style=&quot;font-size: 10px&quot;&gt;&lt;b&gt;Service-B&lt;/b&gt;&lt;/font&gt;" style="text;html=1;strokeColor=none;fillColor=none;align=center;verticalAlign=middle;whiteSpace=wrap;rounded=0;" vertex="1" parent="UTH4l14dTVkqmEDSazQt-15">
          <mxGeometry width="55" height="10" as="geometry" />
        </mxCell>
        <mxCell id="UTH4l14dTVkqmEDSazQt-18" value="" style="group" vertex="1" connectable="0" parent="1">
          <mxGeometry x="182.5" y="186" width="40" height="14" as="geometry" />
        </mxCell>
        <mxCell id="UTH4l14dTVkqmEDSazQt-19" value="" style="rounded=0;whiteSpace=wrap;html=1;fillColor=#6d8764;fontColor=#ffffff;strokeColor=none;" vertex="1" parent="UTH4l14dTVkqmEDSazQt-18">
          <mxGeometry width="40" height="14" as="geometry" />
        </mxCell>
        <mxCell id="UTH4l14dTVkqmEDSazQt-20" value="&lt;font style=&quot;font-size: 8px&quot;&gt;falken&lt;/font&gt;" style="rounded=0;whiteSpace=wrap;html=1;fillColor=#008a00;fontColor=#ffffff;strokeColor=none;" vertex="1" parent="UTH4l14dTVkqmEDSazQt-18">
          <mxGeometry x="10" y="4" width="30" height="10" as="geometry" />
        </mxCell>
        <mxCell id="UTH4l14dTVkqmEDSazQt-21" value="" style="group" vertex="1" connectable="0" parent="UTH4l14dTVkqmEDSazQt-18">
          <mxGeometry width="40" height="14" as="geometry" />
        </mxCell>
        <mxCell id="UTH4l14dTVkqmEDSazQt-22" value="" style="rounded=0;whiteSpace=wrap;html=1;fillColor=#6d8764;fontColor=#ffffff;strokeColor=none;" vertex="1" parent="UTH4l14dTVkqmEDSazQt-21">
          <mxGeometry width="40" height="14" as="geometry" />
        </mxCell>
        <mxCell id="UTH4l14dTVkqmEDSazQt-23" value="&lt;font style=&quot;font-size: 8px&quot;&gt;falken&lt;/font&gt;" style="rounded=0;whiteSpace=wrap;html=1;fillColor=#008a00;fontColor=#ffffff;strokeColor=none;" vertex="1" parent="UTH4l14dTVkqmEDSazQt-21">
          <mxGeometry x="10" y="4" width="30" height="10" as="geometry" />
        </mxCell>
        <mxCell id="UTH4l14dTVkqmEDSazQt-27" value="" style="group" vertex="1" connectable="0" parent="1">
          <mxGeometry x="225" y="160" width="55" height="40" as="geometry" />
        </mxCell>
        <mxCell id="UTH4l14dTVkqmEDSazQt-28" value="&lt;div style=&quot;text-align: justify&quot;&gt;&lt;br&gt;&lt;/div&gt;" style="rounded=0;whiteSpace=wrap;html=1;fillColor=#f0a30a;fontColor=#ffffff;strokeColor=none;align=center;" vertex="1" parent="UTH4l14dTVkqmEDSazQt-27">
          <mxGeometry x="2.5" y="10" width="50" height="30" as="geometry" />
        </mxCell>
        <mxCell id="UTH4l14dTVkqmEDSazQt-29" value="&lt;font style=&quot;font-size: 10px&quot;&gt;&lt;b&gt;Service-C&lt;/b&gt;&lt;/font&gt;" style="text;html=1;strokeColor=none;fillColor=none;align=center;verticalAlign=middle;whiteSpace=wrap;rounded=0;" vertex="1" parent="UTH4l14dTVkqmEDSazQt-27">
          <mxGeometry width="55" height="10" as="geometry" />
        </mxCell>
        <mxCell id="UTH4l14dTVkqmEDSazQt-30" value="" style="group" vertex="1" connectable="0" parent="1">
          <mxGeometry x="237.5" y="186" width="40" height="14" as="geometry" />
        </mxCell>
        <mxCell id="UTH4l14dTVkqmEDSazQt-31" value="" style="rounded=0;whiteSpace=wrap;html=1;fillColor=#6d8764;fontColor=#ffffff;strokeColor=none;" vertex="1" parent="UTH4l14dTVkqmEDSazQt-30">
          <mxGeometry width="40" height="14" as="geometry" />
        </mxCell>
        <mxCell id="UTH4l14dTVkqmEDSazQt-32" value="&lt;font style=&quot;font-size: 8px&quot;&gt;falken&lt;/font&gt;" style="rounded=0;whiteSpace=wrap;html=1;fillColor=#008a00;fontColor=#ffffff;strokeColor=none;" vertex="1" parent="UTH4l14dTVkqmEDSazQt-30">
          <mxGeometry x="10" y="4" width="30" height="10" as="geometry" />
        </mxCell>
        <mxCell id="UTH4l14dTVkqmEDSazQt-33" value="" style="group" vertex="1" connectable="0" parent="UTH4l14dTVkqmEDSazQt-30">
          <mxGeometry width="40" height="14" as="geometry" />
        </mxCell>
        <mxCell id="UTH4l14dTVkqmEDSazQt-34" value="" style="rounded=0;whiteSpace=wrap;html=1;fillColor=#6d8764;fontColor=#ffffff;strokeColor=none;" vertex="1" parent="UTH4l14dTVkqmEDSazQt-33">
          <mxGeometry width="40" height="14" as="geometry" />
        </mxCell>
        <mxCell id="UTH4l14dTVkqmEDSazQt-35" value="&lt;font style=&quot;font-size: 8px&quot;&gt;falken&lt;/font&gt;" style="rounded=0;whiteSpace=wrap;html=1;fillColor=#008a00;fontColor=#ffffff;strokeColor=none;" vertex="1" parent="UTH4l14dTVkqmEDSazQt-33">
          <mxGeometry x="10" y="4" width="30" height="10" as="geometry" />
        </mxCell>
        <mxCell id="UTH4l14dTVkqmEDSazQt-42" value="Host" style="text;html=1;strokeColor=none;fillColor=none;align=center;verticalAlign=middle;whiteSpace=wrap;rounded=0;" vertex="1" parent="1">
          <mxGeometry x="110" y="130" width="40" height="20" as="geometry" />
        </mxCell>
        <mxCell id="UTH4l14dTVkqmEDSazQt-36" value="&lt;font style=&quot;font-size: 8px&quot;&gt;Throttle agent&lt;/font&gt;" style="rounded=0;whiteSpace=wrap;html=1;fillColor=#e51400;fontColor=#ffffff;strokeColor=none;" vertex="1" parent="1">
          <mxGeometry x="128.5" y="206" width="60" height="30" as="geometry" />
        </mxCell>
        <mxCell id="UTH4l14dTVkqmEDSazQt-38" value="&lt;font style=&quot;font-size: 8px&quot;&gt;falken&lt;/font&gt;" style="rounded=0;whiteSpace=wrap;html=1;fillColor=#008a00;fontColor=#ffffff;strokeColor=none;" vertex="1" parent="1">
          <mxGeometry x="158.5" y="226" width="30" height="10" as="geometry" />
        </mxCell>
        <mxCell id="UTH4l14dTVkqmEDSazQt-43" value="" style="curved=1;endArrow=classic;html=1;startArrow=classic;startFill=1;entryX=0.5;entryY=1;entryDx=0;entryDy=0;exitX=0.316;exitY=0.143;exitDx=0;exitDy=0;exitPerimeter=0;fillColor=#60a917;strokeColor=#FF0000;" edge="1" parent="1" source="Sye2rz8z6Uivf4PvG4rr-17" target="UTH4l14dTVkqmEDSazQt-36">
          <mxGeometry width="50" height="50" relative="1" as="geometry">
            <mxPoint x="232.5" y="415.0000000000001" as="sourcePoint" />
            <mxPoint x="135" y="209.9999999999999" as="targetPoint" />
            <Array as="points">
              <mxPoint x="240" y="360" />
              <mxPoint x="150" y="310" />
            </Array>
          </mxGeometry>
        </mxCell>
        <mxCell id="UTH4l14dTVkqmEDSazQt-44" value="" style="rounded=0;whiteSpace=wrap;html=1;" vertex="1" parent="1">
          <mxGeometry x="318" y="150" width="120" height="90" as="geometry" />
        </mxCell>
        <mxCell id="UTH4l14dTVkqmEDSazQt-45" value="" style="group" vertex="1" connectable="0" parent="1">
          <mxGeometry x="320" y="160" width="55" height="40" as="geometry" />
        </mxCell>
        <mxCell id="UTH4l14dTVkqmEDSazQt-46" value="&lt;div style=&quot;text-align: justify&quot;&gt;&lt;br&gt;&lt;/div&gt;" style="rounded=0;whiteSpace=wrap;html=1;fillColor=#f0a30a;fontColor=#ffffff;strokeColor=none;align=center;" vertex="1" parent="UTH4l14dTVkqmEDSazQt-45">
          <mxGeometry x="2.5" y="10" width="50" height="30" as="geometry" />
        </mxCell>
        <mxCell id="UTH4l14dTVkqmEDSazQt-47" value="&lt;font style=&quot;font-size: 10px&quot;&gt;&lt;b&gt;Service-A&lt;/b&gt;&lt;/font&gt;" style="text;html=1;strokeColor=none;fillColor=none;align=center;verticalAlign=middle;whiteSpace=wrap;rounded=0;" vertex="1" parent="UTH4l14dTVkqmEDSazQt-45">
          <mxGeometry width="55" height="10" as="geometry" />
        </mxCell>
        <mxCell id="UTH4l14dTVkqmEDSazQt-48" value="" style="group" vertex="1" connectable="0" parent="1">
          <mxGeometry x="332.5" y="186" width="40" height="14" as="geometry" />
        </mxCell>
        <mxCell id="UTH4l14dTVkqmEDSazQt-49" value="" style="rounded=0;whiteSpace=wrap;html=1;fillColor=#6d8764;fontColor=#ffffff;strokeColor=none;" vertex="1" parent="UTH4l14dTVkqmEDSazQt-48">
          <mxGeometry width="40" height="14" as="geometry" />
        </mxCell>
        <mxCell id="UTH4l14dTVkqmEDSazQt-50" value="&lt;font style=&quot;font-size: 8px&quot;&gt;falken&lt;/font&gt;" style="rounded=0;whiteSpace=wrap;html=1;fillColor=#008a00;fontColor=#ffffff;strokeColor=none;" vertex="1" parent="UTH4l14dTVkqmEDSazQt-48">
          <mxGeometry x="10" y="4" width="30" height="10" as="geometry" />
        </mxCell>
        <mxCell id="UTH4l14dTVkqmEDSazQt-51" value="" style="group" vertex="1" connectable="0" parent="UTH4l14dTVkqmEDSazQt-48">
          <mxGeometry width="40" height="14" as="geometry" />
        </mxCell>
        <mxCell id="UTH4l14dTVkqmEDSazQt-52" value="" style="rounded=0;whiteSpace=wrap;html=1;fillColor=#6d8764;fontColor=#ffffff;strokeColor=none;" vertex="1" parent="UTH4l14dTVkqmEDSazQt-51">
          <mxGeometry width="40" height="14" as="geometry" />
        </mxCell>
        <mxCell id="UTH4l14dTVkqmEDSazQt-53" value="&lt;font style=&quot;font-size: 8px&quot;&gt;falken&lt;/font&gt;" style="rounded=0;whiteSpace=wrap;html=1;fillColor=#008a00;fontColor=#ffffff;strokeColor=none;" vertex="1" parent="UTH4l14dTVkqmEDSazQt-51">
          <mxGeometry x="10" y="4" width="30" height="10" as="geometry" />
        </mxCell>
        <mxCell id="UTH4l14dTVkqmEDSazQt-63" value="" style="group" vertex="1" connectable="0" parent="1">
          <mxGeometry x="380" y="160" width="55" height="40" as="geometry" />
        </mxCell>
        <mxCell id="UTH4l14dTVkqmEDSazQt-64" value="&lt;div style=&quot;text-align: justify&quot;&gt;&lt;br&gt;&lt;/div&gt;" style="rounded=0;whiteSpace=wrap;html=1;fillColor=#f0a30a;fontColor=#ffffff;strokeColor=none;align=center;" vertex="1" parent="UTH4l14dTVkqmEDSazQt-63">
          <mxGeometry x="2.5" y="10" width="50" height="30" as="geometry" />
        </mxCell>
        <mxCell id="UTH4l14dTVkqmEDSazQt-65" value="&lt;font style=&quot;font-size: 10px&quot;&gt;&lt;b&gt;Service-C&lt;/b&gt;&lt;/font&gt;" style="text;html=1;strokeColor=none;fillColor=none;align=center;verticalAlign=middle;whiteSpace=wrap;rounded=0;" vertex="1" parent="UTH4l14dTVkqmEDSazQt-63">
          <mxGeometry width="55" height="10" as="geometry" />
        </mxCell>
        <mxCell id="UTH4l14dTVkqmEDSazQt-66" value="" style="group" vertex="1" connectable="0" parent="1">
          <mxGeometry x="392.5" y="186" width="40" height="14" as="geometry" />
        </mxCell>
        <mxCell id="UTH4l14dTVkqmEDSazQt-67" value="" style="rounded=0;whiteSpace=wrap;html=1;fillColor=#6d8764;fontColor=#ffffff;strokeColor=none;" vertex="1" parent="UTH4l14dTVkqmEDSazQt-66">
          <mxGeometry width="40" height="14" as="geometry" />
        </mxCell>
        <mxCell id="UTH4l14dTVkqmEDSazQt-68" value="&lt;font style=&quot;font-size: 8px&quot;&gt;falken&lt;/font&gt;" style="rounded=0;whiteSpace=wrap;html=1;fillColor=#008a00;fontColor=#ffffff;strokeColor=none;" vertex="1" parent="UTH4l14dTVkqmEDSazQt-66">
          <mxGeometry x="10" y="4" width="30" height="10" as="geometry" />
        </mxCell>
        <mxCell id="UTH4l14dTVkqmEDSazQt-69" value="" style="group" vertex="1" connectable="0" parent="UTH4l14dTVkqmEDSazQt-66">
          <mxGeometry width="40" height="14" as="geometry" />
        </mxCell>
        <mxCell id="UTH4l14dTVkqmEDSazQt-70" value="" style="rounded=0;whiteSpace=wrap;html=1;fillColor=#6d8764;fontColor=#ffffff;strokeColor=none;" vertex="1" parent="UTH4l14dTVkqmEDSazQt-69">
          <mxGeometry width="40" height="14" as="geometry" />
        </mxCell>
        <mxCell id="UTH4l14dTVkqmEDSazQt-71" value="&lt;font style=&quot;font-size: 8px&quot;&gt;falken&lt;/font&gt;" style="rounded=0;whiteSpace=wrap;html=1;fillColor=#008a00;fontColor=#ffffff;strokeColor=none;" vertex="1" parent="UTH4l14dTVkqmEDSazQt-69">
          <mxGeometry x="10" y="4" width="30" height="10" as="geometry" />
        </mxCell>
        <mxCell id="UTH4l14dTVkqmEDSazQt-72" value="Host" style="text;html=1;strokeColor=none;fillColor=none;align=center;verticalAlign=middle;whiteSpace=wrap;rounded=0;" vertex="1" parent="1">
          <mxGeometry x="318" y="130" width="40" height="20" as="geometry" />
        </mxCell>
        <mxCell id="UTH4l14dTVkqmEDSazQt-73" value="&lt;font style=&quot;font-size: 8px&quot;&gt;Throttle agent&lt;/font&gt;" style="rounded=0;whiteSpace=wrap;html=1;fillColor=#e51400;fontColor=#ffffff;strokeColor=none;" vertex="1" parent="1">
          <mxGeometry x="350" y="206" width="60" height="30" as="geometry" />
        </mxCell>
        <mxCell id="UTH4l14dTVkqmEDSazQt-74" value="&lt;font style=&quot;font-size: 8px&quot;&gt;falken&lt;/font&gt;" style="rounded=0;whiteSpace=wrap;html=1;fillColor=#008a00;fontColor=#ffffff;strokeColor=none;" vertex="1" parent="1">
          <mxGeometry x="380" y="226" width="30" height="10" as="geometry" />
        </mxCell>
        <mxCell id="UTH4l14dTVkqmEDSazQt-106" value="" style="curved=1;endArrow=classic;html=1;startArrow=classic;startFill=1;entryX=0.25;entryY=1;entryDx=0;entryDy=0;exitX=0.625;exitY=0.2;exitDx=0;exitDy=0;exitPerimeter=0;fillColor=#60a917;strokeColor=#2D7600;" edge="1" parent="1" source="Sye2rz8z6Uivf4PvG4rr-17" target="UTH4l14dTVkqmEDSazQt-46">
          <mxGeometry width="50" height="50" relative="1" as="geometry">
            <mxPoint x="245" y="385" as="sourcePoint" />
            <mxPoint x="135" y="210" as="targetPoint" />
            <Array as="points">
              <mxPoint x="310" y="310" />
            </Array>
          </mxGeometry>
        </mxCell>
        <mxCell id="UTH4l14dTVkqmEDSazQt-107" value="" style="curved=1;endArrow=classic;html=1;startArrow=classic;startFill=1;entryX=0.75;entryY=1;entryDx=0;entryDy=0;fillColor=#60a917;strokeColor=#2D7600;exitX=0.644;exitY=0.206;exitDx=0;exitDy=0;exitPerimeter=0;" edge="1" parent="1" source="Sye2rz8z6Uivf4PvG4rr-17" target="UTH4l14dTVkqmEDSazQt-71">
          <mxGeometry width="50" height="50" relative="1" as="geometry">
            <mxPoint x="420" y="370" as="sourcePoint" />
            <mxPoint x="345" y="210" as="targetPoint" />
            <Array as="points">
              <mxPoint x="470" y="310" />
            </Array>
          </mxGeometry>
        </mxCell>
        <mxCell id="UTH4l14dTVkqmEDSazQt-108" value="" style="curved=1;endArrow=classic;html=1;startArrow=classic;startFill=1;entryX=0.5;entryY=1;entryDx=0;entryDy=0;exitX=0.466;exitY=0.094;exitDx=0;exitDy=0;exitPerimeter=0;fillColor=#60a917;strokeColor=#FF0000;" edge="1" parent="1" source="Sye2rz8z6Uivf4PvG4rr-17" target="UTH4l14dTVkqmEDSazQt-73">
          <mxGeometry width="50" height="50" relative="1" as="geometry">
            <mxPoint x="274.70000000000005" y="374.29999999999995" as="sourcePoint" />
            <mxPoint x="169.5" y="248" as="targetPoint" />
            <Array as="points">
              <mxPoint x="290" y="290" />
              <mxPoint x="380" y="280" />
            </Array>
          </mxGeometry>
        </mxCell>
        <mxCell id="UTH4l14dTVkqmEDSazQt-111" value="" style="rounded=0;whiteSpace=wrap;html=1;" vertex="1" parent="1">
          <mxGeometry x="500" y="150" width="170" height="90" as="geometry" />
        </mxCell>
        <mxCell id="UTH4l14dTVkqmEDSazQt-112" value="" style="group" vertex="1" connectable="0" parent="1">
          <mxGeometry x="500" y="160" width="55" height="40" as="geometry" />
        </mxCell>
        <mxCell id="UTH4l14dTVkqmEDSazQt-113" value="&lt;div style=&quot;text-align: justify&quot;&gt;&lt;br&gt;&lt;/div&gt;" style="rounded=0;whiteSpace=wrap;html=1;fillColor=#f0a30a;fontColor=#ffffff;strokeColor=none;align=center;" vertex="1" parent="UTH4l14dTVkqmEDSazQt-112">
          <mxGeometry x="2.5" y="10" width="50" height="30" as="geometry" />
        </mxCell>
        <mxCell id="UTH4l14dTVkqmEDSazQt-114" value="&lt;font style=&quot;font-size: 10px&quot;&gt;&lt;b&gt;Service-A&lt;/b&gt;&lt;/font&gt;" style="text;html=1;strokeColor=none;fillColor=none;align=center;verticalAlign=middle;whiteSpace=wrap;rounded=0;" vertex="1" parent="UTH4l14dTVkqmEDSazQt-112">
          <mxGeometry width="55" height="10" as="geometry" />
        </mxCell>
        <mxCell id="UTH4l14dTVkqmEDSazQt-115" value="" style="group" vertex="1" connectable="0" parent="1">
          <mxGeometry x="512.5" y="186" width="40" height="14" as="geometry" />
        </mxCell>
        <mxCell id="UTH4l14dTVkqmEDSazQt-116" value="" style="rounded=0;whiteSpace=wrap;html=1;fillColor=#6d8764;fontColor=#ffffff;strokeColor=none;" vertex="1" parent="UTH4l14dTVkqmEDSazQt-115">
          <mxGeometry width="40" height="14" as="geometry" />
        </mxCell>
        <mxCell id="UTH4l14dTVkqmEDSazQt-117" value="&lt;font style=&quot;font-size: 8px&quot;&gt;falken&lt;/font&gt;" style="rounded=0;whiteSpace=wrap;html=1;fillColor=#008a00;fontColor=#ffffff;strokeColor=none;" vertex="1" parent="UTH4l14dTVkqmEDSazQt-115">
          <mxGeometry x="10" y="4" width="30" height="10" as="geometry" />
        </mxCell>
        <mxCell id="UTH4l14dTVkqmEDSazQt-118" value="" style="group" vertex="1" connectable="0" parent="UTH4l14dTVkqmEDSazQt-115">
          <mxGeometry width="40" height="14" as="geometry" />
        </mxCell>
        <mxCell id="UTH4l14dTVkqmEDSazQt-119" value="" style="rounded=0;whiteSpace=wrap;html=1;fillColor=#6d8764;fontColor=#ffffff;strokeColor=none;" vertex="1" parent="UTH4l14dTVkqmEDSazQt-118">
          <mxGeometry width="40" height="14" as="geometry" />
        </mxCell>
        <mxCell id="UTH4l14dTVkqmEDSazQt-120" value="&lt;font style=&quot;font-size: 8px&quot;&gt;falken&lt;/font&gt;" style="rounded=0;whiteSpace=wrap;html=1;fillColor=#008a00;fontColor=#ffffff;strokeColor=none;" vertex="1" parent="UTH4l14dTVkqmEDSazQt-118">
          <mxGeometry x="10" y="4" width="30" height="10" as="geometry" />
        </mxCell>
        <mxCell id="UTH4l14dTVkqmEDSazQt-121" value="" style="group" vertex="1" connectable="0" parent="1">
          <mxGeometry x="560" y="160" width="55" height="40" as="geometry" />
        </mxCell>
        <mxCell id="UTH4l14dTVkqmEDSazQt-122" value="&lt;div style=&quot;text-align: justify&quot;&gt;&lt;br&gt;&lt;/div&gt;" style="rounded=0;whiteSpace=wrap;html=1;fillColor=#f0a30a;fontColor=#ffffff;strokeColor=none;align=center;" vertex="1" parent="UTH4l14dTVkqmEDSazQt-121">
          <mxGeometry x="2.5" y="10" width="50" height="30" as="geometry" />
        </mxCell>
        <mxCell id="UTH4l14dTVkqmEDSazQt-123" value="&lt;font style=&quot;font-size: 10px&quot;&gt;&lt;b&gt;Service-B&lt;/b&gt;&lt;/font&gt;" style="text;html=1;strokeColor=none;fillColor=none;align=center;verticalAlign=middle;whiteSpace=wrap;rounded=0;" vertex="1" parent="UTH4l14dTVkqmEDSazQt-121">
          <mxGeometry width="55" height="10" as="geometry" />
        </mxCell>
        <mxCell id="UTH4l14dTVkqmEDSazQt-124" value="" style="group" vertex="1" connectable="0" parent="1">
          <mxGeometry x="572.5" y="186" width="40" height="14" as="geometry" />
        </mxCell>
        <mxCell id="UTH4l14dTVkqmEDSazQt-125" value="" style="rounded=0;whiteSpace=wrap;html=1;fillColor=#6d8764;fontColor=#ffffff;strokeColor=none;" vertex="1" parent="UTH4l14dTVkqmEDSazQt-124">
          <mxGeometry width="40" height="14" as="geometry" />
        </mxCell>
        <mxCell id="UTH4l14dTVkqmEDSazQt-126" value="&lt;font style=&quot;font-size: 8px&quot;&gt;falken&lt;/font&gt;" style="rounded=0;whiteSpace=wrap;html=1;fillColor=#008a00;fontColor=#ffffff;strokeColor=none;" vertex="1" parent="UTH4l14dTVkqmEDSazQt-124">
          <mxGeometry x="10" y="4" width="30" height="10" as="geometry" />
        </mxCell>
        <mxCell id="UTH4l14dTVkqmEDSazQt-127" value="" style="group" vertex="1" connectable="0" parent="UTH4l14dTVkqmEDSazQt-124">
          <mxGeometry width="40" height="14" as="geometry" />
        </mxCell>
        <mxCell id="UTH4l14dTVkqmEDSazQt-128" value="" style="rounded=0;whiteSpace=wrap;html=1;fillColor=#6d8764;fontColor=#ffffff;strokeColor=none;" vertex="1" parent="UTH4l14dTVkqmEDSazQt-127">
          <mxGeometry width="40" height="14" as="geometry" />
        </mxCell>
        <mxCell id="UTH4l14dTVkqmEDSazQt-129" value="&lt;font style=&quot;font-size: 8px&quot;&gt;falken&lt;/font&gt;" style="rounded=0;whiteSpace=wrap;html=1;fillColor=#008a00;fontColor=#ffffff;strokeColor=none;" vertex="1" parent="UTH4l14dTVkqmEDSazQt-127">
          <mxGeometry x="10" y="4" width="30" height="10" as="geometry" />
        </mxCell>
        <mxCell id="UTH4l14dTVkqmEDSazQt-130" value="" style="group" vertex="1" connectable="0" parent="1">
          <mxGeometry x="615" y="160" width="55" height="40" as="geometry" />
        </mxCell>
        <mxCell id="UTH4l14dTVkqmEDSazQt-131" value="&lt;div style=&quot;text-align: justify&quot;&gt;&lt;br&gt;&lt;/div&gt;" style="rounded=0;whiteSpace=wrap;html=1;fillColor=#f0a30a;fontColor=#ffffff;strokeColor=none;align=center;" vertex="1" parent="UTH4l14dTVkqmEDSazQt-130">
          <mxGeometry x="2.5" y="10" width="50" height="30" as="geometry" />
        </mxCell>
        <mxCell id="UTH4l14dTVkqmEDSazQt-132" value="&lt;font style=&quot;font-size: 10px&quot;&gt;&lt;b&gt;Service-C&lt;/b&gt;&lt;/font&gt;" style="text;html=1;strokeColor=none;fillColor=none;align=center;verticalAlign=middle;whiteSpace=wrap;rounded=0;" vertex="1" parent="UTH4l14dTVkqmEDSazQt-130">
          <mxGeometry width="55" height="10" as="geometry" />
        </mxCell>
        <mxCell id="UTH4l14dTVkqmEDSazQt-133" value="" style="group" vertex="1" connectable="0" parent="1">
          <mxGeometry x="627.5" y="186" width="40" height="14" as="geometry" />
        </mxCell>
        <mxCell id="UTH4l14dTVkqmEDSazQt-134" value="" style="rounded=0;whiteSpace=wrap;html=1;fillColor=#6d8764;fontColor=#ffffff;strokeColor=none;" vertex="1" parent="UTH4l14dTVkqmEDSazQt-133">
          <mxGeometry width="40" height="14" as="geometry" />
        </mxCell>
        <mxCell id="UTH4l14dTVkqmEDSazQt-135" value="&lt;font style=&quot;font-size: 8px&quot;&gt;falken&lt;/font&gt;" style="rounded=0;whiteSpace=wrap;html=1;fillColor=#008a00;fontColor=#ffffff;strokeColor=none;" vertex="1" parent="UTH4l14dTVkqmEDSazQt-133">
          <mxGeometry x="10" y="4" width="30" height="10" as="geometry" />
        </mxCell>
        <mxCell id="UTH4l14dTVkqmEDSazQt-136" value="" style="group" vertex="1" connectable="0" parent="UTH4l14dTVkqmEDSazQt-133">
          <mxGeometry width="40" height="14" as="geometry" />
        </mxCell>
        <mxCell id="UTH4l14dTVkqmEDSazQt-137" value="" style="rounded=0;whiteSpace=wrap;html=1;fillColor=#6d8764;fontColor=#ffffff;strokeColor=none;" vertex="1" parent="UTH4l14dTVkqmEDSazQt-136">
          <mxGeometry width="40" height="14" as="geometry" />
        </mxCell>
        <mxCell id="UTH4l14dTVkqmEDSazQt-138" value="&lt;font style=&quot;font-size: 8px&quot;&gt;falken&lt;/font&gt;" style="rounded=0;whiteSpace=wrap;html=1;fillColor=#008a00;fontColor=#ffffff;strokeColor=none;" vertex="1" parent="UTH4l14dTVkqmEDSazQt-136">
          <mxGeometry x="10" y="4" width="30" height="10" as="geometry" />
        </mxCell>
        <mxCell id="UTH4l14dTVkqmEDSazQt-139" value="Host" style="text;html=1;strokeColor=none;fillColor=none;align=center;verticalAlign=middle;whiteSpace=wrap;rounded=0;" vertex="1" parent="1">
          <mxGeometry x="500" y="130" width="40" height="20" as="geometry" />
        </mxCell>
        <mxCell id="UTH4l14dTVkqmEDSazQt-140" value="&lt;font style=&quot;font-size: 8px&quot;&gt;Throttle agent&lt;/font&gt;" style="rounded=0;whiteSpace=wrap;html=1;fillColor=#e51400;fontColor=#ffffff;strokeWidth=3;strokeColor=#0000FF;" vertex="1" parent="1">
          <mxGeometry x="595.5" y="206" width="60" height="30" as="geometry" />
        </mxCell>
        <mxCell id="UTH4l14dTVkqmEDSazQt-141" value="&lt;font style=&quot;font-size: 8px&quot;&gt;falken&lt;/font&gt;" style="rounded=0;whiteSpace=wrap;html=1;fillColor=#008a00;fontColor=#ffffff;strokeColor=none;" vertex="1" parent="1">
          <mxGeometry x="625.5" y="226" width="30" height="10" as="geometry" />
        </mxCell>
        <mxCell id="UTH4l14dTVkqmEDSazQt-142" value="" style="endArrow=none;dashed=1;html=1;dashPattern=1 3;strokeWidth=2;strokeColor=#BD7000;fillColor=#f0a30a;" edge="1" parent="1">
          <mxGeometry width="50" height="50" relative="1" as="geometry">
            <mxPoint x="485.5" y="199.17000000000002" as="sourcePoint" />
            <mxPoint x="450" y="199.17000000000002" as="targetPoint" />
          </mxGeometry>
        </mxCell>
        <mxCell id="UTH4l14dTVkqmEDSazQt-143" value="&lt;b&gt;&lt;font style=&quot;font-size: 7px&quot;&gt;&lt;i&gt;Leader&lt;/i&gt;&lt;/font&gt;&lt;/b&gt;" style="text;html=1;strokeColor=none;fillColor=none;align=center;verticalAlign=middle;whiteSpace=wrap;rounded=0;" vertex="1" parent="1">
          <mxGeometry x="611.75" y="206" width="27.5" height="10" as="geometry" />
        </mxCell>
        <mxCell id="UTH4l14dTVkqmEDSazQt-144" value="" style="curved=1;endArrow=classic;html=1;startArrow=classic;startFill=1;entryX=0.25;entryY=1;entryDx=0;entryDy=0;fillColor=#60a917;strokeColor=#2D7600;exitX=0.702;exitY=0.186;exitDx=0;exitDy=0;exitPerimeter=0;" edge="1" parent="1" source="Sye2rz8z6Uivf4PvG4rr-17" target="UTH4l14dTVkqmEDSazQt-120">
          <mxGeometry width="50" height="50" relative="1" as="geometry">
            <mxPoint x="422.29999999999995" y="380.5999999999999" as="sourcePoint" />
            <mxPoint x="435" y="210" as="targetPoint" />
            <Array as="points">
              <mxPoint x="480" y="320" />
            </Array>
          </mxGeometry>
        </mxCell>
        <mxCell id="UTH4l14dTVkqmEDSazQt-145" value="" style="curved=1;endArrow=classic;html=1;startArrow=classic;startFill=1;entryX=0.75;entryY=1;entryDx=0;entryDy=0;fillColor=#60a917;strokeColor=#2D7600;exitX=0.875;exitY=0.5;exitDx=0;exitDy=0;exitPerimeter=0;" edge="1" parent="1" source="Sye2rz8z6Uivf4PvG4rr-17" target="UTH4l14dTVkqmEDSazQt-138">
          <mxGeometry width="50" height="50" relative="1" as="geometry">
            <mxPoint x="448.4000000000001" y="378.5999999999999" as="sourcePoint" />
            <mxPoint x="540" y="210" as="targetPoint" />
            <Array as="points">
              <mxPoint x="680" y="370" />
            </Array>
          </mxGeometry>
        </mxCell>
        <mxCell id="UTH4l14dTVkqmEDSazQt-146" value="" style="curved=1;endArrow=classic;html=1;startArrow=classic;startFill=1;entryX=0;entryY=1;entryDx=0;entryDy=0;fillColor=#60a917;strokeColor=#2D7600;exitX=0.88;exitY=0.286;exitDx=0;exitDy=0;exitPerimeter=0;" edge="1" parent="1" source="Sye2rz8z6Uivf4PvG4rr-17" target="UTH4l14dTVkqmEDSazQt-128">
          <mxGeometry width="50" height="50" relative="1" as="geometry">
            <mxPoint x="458.4000000000001" y="388.5999999999999" as="sourcePoint" />
            <mxPoint x="550" y="220" as="targetPoint" />
            <Array as="points">
              <mxPoint x="490" y="280" />
            </Array>
          </mxGeometry>
        </mxCell>
        <mxCell id="UTH4l14dTVkqmEDSazQt-147" value="" style="curved=1;endArrow=classic;html=1;startArrow=classic;startFill=1;entryX=0.25;entryY=1;entryDx=0;entryDy=0;exitX=0.908;exitY=0.306;exitDx=0;exitDy=0;exitPerimeter=0;fillColor=#60a917;strokeColor=#FF0000;" edge="1" parent="1" source="Sye2rz8z6Uivf4PvG4rr-17" target="UTH4l14dTVkqmEDSazQt-140">
          <mxGeometry width="50" height="50" relative="1" as="geometry">
            <mxPoint x="342.20000000000005" y="369.4000000000001" as="sourcePoint" />
            <mxPoint x="390" y="245.9999999999999" as="targetPoint" />
            <Array as="points">
              <mxPoint x="550" y="300" />
              <mxPoint x="600" y="300" />
            </Array>
          </mxGeometry>
        </mxCell>
      </root>
    </mxGraphModel>
  </diagram>
</mxfile>
